<svg xmlns="http://www.w3.org/2000/svg" xmlns:xlink="http://www.w3.org/1999/xlink" viewBox="0 0 787.23 468.63"><defs><linearGradient id="a" x1="467.48" y1="138.46" x2="661.69" y2="-36.01" gradientUnits="userSpaceOnUse"><stop offset="0" stop-color="#e9e9f3"/><stop offset="0.43" stop-color="#d4d4da"/><stop offset="1" stop-color="#b3b3b3"/></linearGradient><linearGradient id="b" x1="739.35" y1="2.01" x2="202.97" y2="323.08" gradientUnits="userSpaceOnUse"><stop offset="0" stop-color="#f5f5f5"/><stop offset="1" stop-color="#fcfcfc"/></linearGradient><linearGradient id="c" x1="535.09" y1="196.18" x2="733.82" y2="190.87" gradientUnits="userSpaceOnUse"><stop offset="0" stop-color="#e9e9f3"/><stop offset="0.15" stop-color="#efeff6"/><stop offset="0.57" stop-color="#fbfbfd"/><stop offset="1" stop-color="#fff"/></linearGradient><linearGradient id="d" x1="174.32" y1="121.34" x2="290.66" y2="121.34" gradientUnits="userSpaceOnUse"><stop offset="0" stop-color="#343434"/><stop offset="1" stop-color="#474747"/></linearGradient><linearGradient id="e" x1="457.13" y1="294.2" x2="536.95" y2="294.2" xlink:href="#d"/><linearGradient id="f" x1="412.62" y1="87.51" x2="463.95" y2="87.51" xlink:href="#d"/><linearGradient id="g" x1="642.46" y1="418.79" x2="787.23" y2="418.79" xlink:href="#b"/><linearGradient id="h" x1="549.36" y1="421.59" x2="694.13" y2="421.59" xlink:href="#b"/><linearGradient id="i" x1="665.02" y1="411.59" x2="682.38" y2="411.59" xlink:href="#d"/><linearGradient id="j" x1="570.64" y1="412.18" x2="606.83" y2="412.18" xlink:href="#d"/><linearGradient id="k" x1="535.34" y1="305.76" x2="590.82" y2="305.76" gradientUnits="userSpaceOnUse"><stop offset="0" stop-color="#ffe3c4"/><stop offset="1" stop-color="#fff1e1"/></linearGradient><linearGradient id="l" x1="590.3" y1="255.36" x2="627.19" y2="255.36" xlink:href="#k"/><linearGradient id="m" x1="618.56" y1="356.44" x2="658.3" y2="356.44" xlink:href="#k"/><linearGradient id="n" x1="643.5" y1="363.28" x2="567.26" y2="438.54" xlink:href="#k"/><linearGradient id="o" x1="551.42" y1="309.56" x2="453.68" y2="217.68" xlink:href="#k"/><linearGradient id="p" x1="0" y1="395.35" x2="144.77" y2="395.35" xlink:href="#b"/><linearGradient id="q" x1="74.2" y1="388.35" x2="218.97" y2="388.35" xlink:href="#b"/><linearGradient id="r" x1="79.38" y1="168.78" x2="112.67" y2="168.78" xlink:href="#d"/><linearGradient id="s" x1="93.78" y1="138.62" x2="113.48" y2="138.62" gradientTransform="translate(205.07 -1.61) rotate(72.66)" xlink:href="#d"/><linearGradient id="t" x1="250.15" y1="457.28" x2="407.82" y2="457.28" gradientTransform="matrix(-1, 0, 0, 1, 681.35, 0)" xlink:href="#b"/><linearGradient id="u" x1="331.88" y1="452.54" x2="365.35" y2="452.54" gradientTransform="matrix(-1, 0, 0, 1, 681.35, 0)" xlink:href="#d"/><linearGradient id="v" x1="371.94" y1="452.56" x2="400.08" y2="452.56" gradientTransform="matrix(-1, 0, 0, 1, 681.35, 0)" xlink:href="#d"/></defs><title>CollaboratingAsset 39</title><g style="isolation:isolate"><polygon points="156.98 325.96 156.98 59.4 594.62 3.11 594.62 382.25 156.98 325.96" style="fill:url(#a)"/><polygon points="151.54 333.19 151.54 56.28 589.18 0 589.18 389.47 151.54 333.19" style="fill:url(#b)"/><g style="opacity:0.09"><circle cx="354.46" cy="192.55" r="150" style="fill:none;stroke:#09bffc;stroke-miterlimit:10;stroke-width:1.09094781962685px"/><path d="M378.65,45.15c-47.7,25.94-117.24,255.05-60,293.16" style="fill:none;stroke:#09bffc;stroke-miterlimit:10;stroke-width:1.09094781962685px"/><path d="M344,342.21c39.5,7.2,105.85-202.46,34.67-297.06" style="fill:none;stroke:#09bffc;stroke-miterlimit:10;stroke-width:1.09094781962685px"/><path d="M277.43,63.63C261.66,89.75,446.59,133.37,468.68,94.5" style="fill:none;stroke:#09bffc;stroke-miterlimit:10;stroke-width:1.09094781962685px"/><path d="M238.44,97.39c-6.22,40.65,251.81,82.67,254.88,39.4" style="fill:none;stroke:#09bffc;stroke-miterlimit:10;stroke-width:1.09094781962685px"/><path d="M212.5,144.45c.78,38.19,273.2,91,291.53,44.77" style="fill:none;stroke:#09bffc;stroke-miterlimit:10;stroke-width:1.09094781962685px"/><path d="M204.4,197.68c9.82,34.74,239.19,89.8,290.58,46.25" style="fill:none;stroke:#09bffc;stroke-miterlimit:10;stroke-width:1.09094781962685px"/><path d="M217.43,253.68c23.74,23.8,189.35,71.1,250.37,36.63" style="fill:none;stroke:#09bffc;stroke-miterlimit:10;stroke-width:1.09094781962685px"/><path d="M244.09,294.14c7.59,11.18,119.71,51.62,183.19,29.29" style="fill:none;stroke:#09bffc;stroke-miterlimit:10;stroke-width:1.09094781962685px"/><path d="M378.65,45.15c100.66,31.76,169.4,233.77,14.47,292.22" style="fill:none;stroke:#09bffc;stroke-miterlimit:10;stroke-width:1.09094781962685px"/></g><polygon points="151.54 333.19 151.54 56.28 589.18 0 589.18 389.47 151.54 333.19" style="fill:none"/><polygon points="589.18 0 594.62 3.11 594.62 384.97 589.18 389.47 589.18 0" style="fill:url(#c)"/><polygon points="151.54 333.19 151.54 56.28 589.18 0 589.18 389.47 151.54 333.19" style="fill:none"/><polygon points="151.54 333.19 151.54 56.28 589.18 0 589.18 389.47 151.54 333.19" style="fill:none"/><g style="mix-blend-mode:multiply"><path d="M193.69,261.35l-11.08-.8a.31.31,0,0,0-.19,0,.36.36,0,0,0-.14.11.37.37,0,0,0-.1.17.54.54,0,0,0,0,.22v35.39a.54.54,0,0,1,0-.22.42.42,0,0,1,.1-.17.45.45,0,0,1,.14-.1.58.58,0,0,1,.19,0l11.08,1.14a.48.48,0,0,1,.18.06,1.07,1.07,0,0,1,.16.14,1.14,1.14,0,0,1,.1.19.85.85,0,0,1,0,.23V262a.78.78,0,0,0,0-.22.85.85,0,0,0-.1-.19.7.7,0,0,0-.16-.14.48.48,0,0,0-.18-.06" style="fill:#0abffc"/><path d="M193.69,297.09,182.61,296a.58.58,0,0,0-.19,0,.45.45,0,0,0-.14.1.42.42,0,0,0-.1.17.54.54,0,0,0,0,.22v17.16a.54.54,0,0,0,0,.22.44.44,0,0,0,.1.19.47.47,0,0,0,.14.14.44.44,0,0,0,.19.07l11.08,1.3a.35.35,0,0,0,.18,0,.54.54,0,0,0,.16-.1,1,1,0,0,0,.1-.17.78.78,0,0,0,0-.22V297.71a.85.85,0,0,0,0-.23,1.14,1.14,0,0,0-.1-.19,1.07,1.07,0,0,0-.16-.14.48.48,0,0,0-.18-.06" style="fill:#07d7a7"/><path d="M210.71,250.73l-11.4-.72a.63.63,0,0,0-.19,0,.83.83,0,0,0-.15.11.52.52,0,0,0-.1.18.54.54,0,0,0,0,.22v65a.54.54,0,0,0,0,.22.63.63,0,0,0,.1.2,1,1,0,0,0,.15.14.47.47,0,0,0,.19.06l11.4,1.35a.32.32,0,0,0,.19,0,.31.31,0,0,0,.15-.1.62.62,0,0,0,.11-.17.78.78,0,0,0,0-.22.78.78,0,0,1,0,.22.62.62,0,0,1-.11.17.31.31,0,0,1-.15.1.32.32,0,0,1-.19,0l-11.4-1.35a.47.47,0,0,1-.19-.06A1,1,0,0,1,199,316a.63.63,0,0,1-.1-.2.54.54,0,0,1,0-.22v-46.5a.54.54,0,0,1,0-.22.59.59,0,0,1,.1-.17.39.39,0,0,1,.15-.11.32.32,0,0,1,.19,0l11.4.89a.7.7,0,0,1,.19.06.5.5,0,0,1,.15.14.72.72,0,0,1,.11.19.85.85,0,0,1,0,.23V251.34a.85.85,0,0,0,0-.23.72.72,0,0,0-.11-.19.47.47,0,0,0-.15-.13.7.7,0,0,0-.19-.06" style="fill:#0abffc"/><path d="M210.71,269.45l-11.4-.89a.32.32,0,0,0-.19,0,.39.39,0,0,0-.15.11.59.59,0,0,0-.1.17.54.54,0,0,0,0,.22v46.5a.54.54,0,0,0,0,.22.63.63,0,0,0,.1.2,1,1,0,0,0,.15.14.47.47,0,0,0,.19.06l11.4,1.35a.32.32,0,0,0,.19,0,.31.31,0,0,0,.15-.1.62.62,0,0,0,.11-.17.78.78,0,0,0,0-.22v-47a.85.85,0,0,0,0-.23.72.72,0,0,0-.11-.19.5.5,0,0,0-.15-.14.7.7,0,0,0-.19-.06" style="fill:#07d7a7"/><path d="M228.21,274l-11.72-1a.64.64,0,0,0-.2,0,.53.53,0,0,0-.15.11.54.54,0,0,0-.11.18.78.78,0,0,0,0,.22v44a.85.85,0,0,0,0,.23.78.78,0,0,0,.11.2.66.66,0,0,0,.15.14.48.48,0,0,0,.2.07l11.72,1.38a.44.44,0,0,0,.2,0,.57.57,0,0,0,.16-.11,1,1,0,0,0,.11-.17.85.85,0,0,0,0-.23.85.85,0,0,1,0,.23,1,1,0,0,1-.11.17.57.57,0,0,1-.16.11.44.44,0,0,1-.2,0l-11.72-1.38a.48.48,0,0,1-.2-.07.66.66,0,0,1-.15-.14.78.78,0,0,1-.11-.2.85.85,0,0,1,0-.23V291.28a.72.72,0,0,1,0-.22.54.54,0,0,1,.11-.18.53.53,0,0,1,.15-.11.64.64,0,0,1,.2,0l11.72,1.12a.48.48,0,0,1,.2.07.7.7,0,0,1,.16.14,1.28,1.28,0,0,1,.11.2.85.85,0,0,1,0,.23V274.67a.85.85,0,0,0,0-.23,1.28,1.28,0,0,0-.11-.2,1.07,1.07,0,0,0-.16-.14.66.66,0,0,0-.2-.06" style="fill:#0abffc"/><path d="M228.21,291.86l-11.72-1.12a.64.64,0,0,0-.2,0,.53.53,0,0,0-.15.11.54.54,0,0,0-.11.18.72.72,0,0,0,0,.22V317.6a.85.85,0,0,0,0,.23.78.78,0,0,0,.11.2.66.66,0,0,0,.15.14.48.48,0,0,0,.2.07l11.72,1.38a.44.44,0,0,0,.2,0,.57.57,0,0,0,.16-.11,1,1,0,0,0,.11-.17.85.85,0,0,0,0-.23V292.5a.85.85,0,0,0,0-.23,1.28,1.28,0,0,0-.11-.2.7.7,0,0,0-.16-.14.48.48,0,0,0-.2-.07" style="fill:#07d7a7"/><path d="M246.59,265.55l-12.42-.91a.34.34,0,0,0-.2,0,.45.45,0,0,0-.17.11.5.5,0,0,0-.11.17.54.54,0,0,0,0,.22v54.52a.57.57,0,0,0,0,.22.64.64,0,0,0,.11.2.55.55,0,0,0,.17.14.48.48,0,0,0,.2.07l12.42,1.47a.47.47,0,0,0,.21,0,.37.37,0,0,0,.17-.1.52.52,0,0,0,.12-.17.78.78,0,0,0,0-.22.78.78,0,0,1,0,.22.52.52,0,0,1-.12.17.37.37,0,0,1-.17.1.47.47,0,0,1-.21,0l-12.42-1.47a.48.48,0,0,1-.2-.07.55.55,0,0,1-.17-.14.64.64,0,0,1-.11-.2.57.57,0,0,1,0-.22V314.5a.56.56,0,0,1,0-.23.62.62,0,0,1,.11-.17.59.59,0,0,1,.17-.1.64.64,0,0,1,.2,0l12.42,1.41a.47.47,0,0,1,.21.06.61.61,0,0,1,.17.15.67.67,0,0,1,.12.2.85.85,0,0,1,0,.23V266.17a.85.85,0,0,0,0-.23.82.82,0,0,0-.12-.2.55.55,0,0,0-.17-.13.37.37,0,0,0-.21-.06" style="fill:#0abffc"/><path d="M246.59,315.38,234.17,314a.64.64,0,0,0-.2,0,.59.59,0,0,0-.17.1.62.62,0,0,0-.11.17.56.56,0,0,0,0,.23v5.19a.57.57,0,0,0,0,.22.64.64,0,0,0,.11.2.55.55,0,0,0,.17.14.48.48,0,0,0,.2.07l12.42,1.47a.47.47,0,0,0,.21,0,.37.37,0,0,0,.17-.1.52.52,0,0,0,.12-.17.78.78,0,0,0,0-.22V316a.85.85,0,0,0,0-.23.67.67,0,0,0-.12-.2.61.61,0,0,0-.17-.15.47.47,0,0,0-.21-.06" style="fill:#07d7a7"/></g><path d="M290.66,75.88,174.32,89.38l3.12,77.41L287.15,156.5Z" style="opacity:0.03;fill:url(#d)"/><polygon points="279.78 65 163.44 78.5 166.56 155.91 283.2 150.04 279.78 65" style="fill:#fff"/><polyline points="242.18 89.11 205.98 92.74 206.13 96.55 242.34 93.03 242.18 89.11" style="fill:#e9edfb"/><polyline points="276.14 106.96 238.01 110.16 238.17 114.07 276.3 110.99 276.14 106.96" style="fill:#e9edfb"/><polyline points="270.18 127.58 232.43 130.16 232.58 134.06 270.35 131.59 270.18 127.58" style="fill:#e9edfb"/><path d="M232.15,105.76l-35.62,3.13a1,1,0,0,0-.51.19,1.45,1.45,0,0,0-.41.44,2.53,2.53,0,0,0-.26.63,2.25,2.25,0,0,0-.07.74l.34,8.51a2.78,2.78,0,0,0,.13.73,2,2,0,0,0,.31.58,1.38,1.38,0,0,0,.44.37,1.05,1.05,0,0,0,.53.11l35.63-2.77a1.07,1.07,0,0,0,.54-.19,1.47,1.47,0,0,0,.43-.46,2.07,2.07,0,0,0,.28-.64,2.76,2.76,0,0,0,.08-.77l-.35-8.78a2.49,2.49,0,0,0-.14-.74,2.16,2.16,0,0,0-.33-.6,1.43,1.43,0,0,0-.47-.38,1,1,0,0,0-.55-.1" style="fill:#07d7a7"/><path d="M201.86,91.24l-19.17,2a1,1,0,0,0-.5.2,1.35,1.35,0,0,0-.4.45,2.31,2.31,0,0,0-.26.62,3,3,0,0,0-.07.74l.3,7.48a2.71,2.71,0,0,0,.13.72,1.89,1.89,0,0,0,.31.56,1.25,1.25,0,0,0,.43.37,1,1,0,0,0,.51.1l19.18-1.78a1,1,0,0,0,.52-.2,1.74,1.74,0,0,0,.41-.44,2.53,2.53,0,0,0,.26-.63,2.66,2.66,0,0,0,.08-.75L203.28,93a2.43,2.43,0,0,0-.14-.73,1.79,1.79,0,0,0-.31-.58,1.34,1.34,0,0,0-.44-.36,1,1,0,0,0-.53-.1" style="fill:#07d7a7"/><path d="M226.66,126.66l-14.5,1a1,1,0,0,0-.53.19,1.58,1.58,0,0,0-.41.44,2.11,2.11,0,0,0-.27.63,2.62,2.62,0,0,0-.08.75l.31,7.66a2.56,2.56,0,0,0,.14.74,1.81,1.81,0,0,0,.32.58,1.46,1.46,0,0,0,.44.39,1,1,0,0,0,.54.11l14.5-.9a1,1,0,0,0,.54-.18,1.64,1.64,0,0,0,.43-.44,2.17,2.17,0,0,0,.27-.64,2.09,2.09,0,0,0,.08-.76l-.31-7.76a2.56,2.56,0,0,0-.14-.75,2.14,2.14,0,0,0-.32-.6,1.48,1.48,0,0,0-.46-.38,1.08,1.08,0,0,0-.55-.12" style="fill:#3a46dd"/><polygon points="457.13 242.39 457.13 343.44 529.88 346.01 536.95 242.52 457.13 242.39" style="opacity:0.03;fill:url(#e)"/><polygon points="450.06 238.04 450.06 339.08 529.88 346.01 529.88 238.17 450.06 238.04" style="fill:#fff"/><polyline points="497.86 253.13 463.73 252.66 463.73 261.95 497.86 262.69 497.86 253.13" style="fill:#e9edfb"/><polyline points="500.8 266.86 463.73 265.94 463.73 275.23 500.8 276.44 500.8 266.86" style="fill:#e9edfb"/><polyline points="478.19 283.76 463.73 283.19 463.73 292.48 478.19 293.16 478.19 283.76" style="fill:#07d7a7"/><polyline points="494.95 284.42 478.19 283.76 478.19 293.16 494.95 293.95 494.95 284.42" style="fill:#ffdb66"/><polyline points="517.68 300.57 502.27 299.78 502.27 309.37 517.68 310.28 517.68 300.57" style="fill:#ffdb66"/><polyline points="502.27 299.78 463.73 297.8 463.73 307.09 502.27 309.37 502.27 299.78" style="fill:#07d7a7"/><polyline points="484.36 313.71 463.73 312.4 463.73 321.69 484.36 323.16 484.36 313.71" style="fill:#07d7a7"/><polyline points="498.84 314.63 484.36 313.71 484.36 323.16 498.84 324.19 498.84 314.63" style="fill:#ffdb66"/><path d="M434.08,128l-.76.05.11,42.63a11.08,11.08,0,0,0,.29,2.65,5.49,5.49,0,0,0,.88,1.92,3.69,3.69,0,0,0,1.43,1.17,4.73,4.73,0,0,0,2,.41l11.64-.3v-1.06l-11.63.3a4.18,4.18,0,0,1-1.69-.32,2.89,2.89,0,0,1-1.19-.94,4.32,4.32,0,0,1-.71-1.59,10,10,0,0,1-.23-2.26L434.08,128" style="fill:#0abffc"/><path d="M428.52,128.42l-.75.05.16,62.33c0,.7,0,1.37.1,2a12.15,12.15,0,0,0,.31,1.73,8.33,8.33,0,0,0,.5,1.46,6,6,0,0,0,.7,1.19,4.46,4.46,0,0,0,.83.85,4.65,4.65,0,0,0,1,.62,5.41,5.41,0,0,0,1.16.36,7.07,7.07,0,0,0,1.33.12h.55l15.29-.1v-1.07l-15.31.11h-.52a6.46,6.46,0,0,1-1.19-.09,5.38,5.38,0,0,1-1-.31,4,4,0,0,1-1.59-1.26,5.07,5.07,0,0,1-.6-1,8.34,8.34,0,0,1-.43-1.28,12.8,12.8,0,0,1-.26-1.53,16.68,16.68,0,0,1-.09-1.78l-.16-62.37" style="fill:#07d7a7"/><polyline points="456.31 202.59 456.29 194.86 480.95 194.62 480.97 202.51 456.31 202.59" style="fill:#fff"/><polyline points="480.97 202.51 480.95 194.62 508.71 194.35 508.73 202.43 480.97 202.51" style="fill:#fff"/><polyline points="518.1 201.04 518.08 194.26 532.93 194.12 532.95 200.98 518.1 201.04" style="fill:#fff"/><polyline points="518.03 176.64 518.02 171.22 532.87 170.8 532.89 176.29 518.03 176.64" style="fill:#fff"/><polyline points="456.25 179.39 456.23 171.66 485.35 170.81 485.37 178.73 456.25 179.39" style="fill:#fff"/><polyline points="485.37 178.73 485.35 170.81 508.65 170.13 508.67 178.21 485.37 178.73" style="fill:#fff"/><polyline points="458.1 161.28 458.08 154.83 498.36 153.09 498.38 159.76 458.1 161.28" style="fill:#fff"/><polyline points="549.28 139.36 450.25 144.89 450.02 175.47 450.01 176.54 449.85 197.92 449.85 198.99 449.74 212.86 548.72 212.43 549.28 139.36" style="fill:#fff"/><polyline points="549.28 139.36 450.25 144.89 450.02 175.47 450.01 176.54 449.85 197.92 449.85 198.99 449.74 212.86 548.72 212.43 549.28 139.36" style="fill:#fff"/><polyline points="498.36 153.09 458.08 154.83 458.1 161.28 498.38 159.76 498.36 153.09" style="fill:#e8e8e8"/><polyline points="485.35 170.81 456.23 171.66 456.25 179.39 485.37 178.73 485.35 170.81" style="fill:#0abffc"/><polyline points="508.65 170.13 485.35 170.81 485.37 178.73 508.67 178.21 508.65 170.13" style="fill:#e8e8e8"/><polyline points="480.95 194.62 456.29 194.86 456.31 202.59 480.97 202.51 480.95 194.62" style="fill:#07d7a7"/><polyline points="508.71 194.35 480.95 194.62 480.97 202.51 508.73 202.43 508.71 194.35" style="fill:#e8e8e8"/><polyline points="532.87 170.8 518.02 171.22 518.03 176.64 532.89 176.29 532.87 170.8" style="fill:#e9edfb"/><polyline points="532.93 194.12 518.08 194.26 518.1 201.04 532.95 200.98 532.93 194.12" style="fill:#e9edfb"/><path d="M464,47.74l-46.71,4a7.42,7.42,0,0,1-.36,2.29,6.92,6.92,0,0,1-1,1.93,5.36,5.36,0,0,1-1.47,1.35,4,4,0,0,1-1.79.6v69.36L433,127h.68l4.36-.06L464,126.6V47.74" style="opacity:0.03;fill:url(#f)"/><polyline points="411.93 113.44 411.93 102.42 451.6 101.13 451.6 112.57 411.93 113.44" style="fill:#fff"/><polyline points="411.93 98.42 411.93 83.39 451.6 81.37 451.6 96.97 411.93 98.42" style="fill:#fff"/><polyline points="411.93 80.39 411.93 68.37 451.6 65.78 451.6 78.25 411.93 80.39" style="fill:#fff"/><polyline points="412.73 61.3 412.73 53.28 446.48 50.59 446.48 58.87 412.73 61.3" style="fill:#fff"/><path d="M458.51,42.3,411.8,46.35a7.6,7.6,0,0,1-.36,2.31,7.12,7.12,0,0,1-1,1.94A5.44,5.44,0,0,1,409,52a4,4,0,0,1-1.79.6v69.94l20.38-.27h.68l4.36-.06h.69l25.22-.34V42.3" style="fill:#fff"/><polyline points="446.48 50.59 412.73 53.28 412.73 61.3 446.48 58.87 446.48 50.59" style="fill:#e8e8e8"/><path d="M414.32,76.25v-4l29.61-1.82v4.13l-29.61,1.71M451.6,65.78l-39.67,2.59v12l39.67-2.14V65.78" style="fill:#f5f5f5"/><path d="M414.32,93.31v-4L442.24,88v4.12l-27.92,1.15M451.6,81.37l-39.67,2v15L451.6,97V81.37" style="fill:#f5f5f5"/><path d="M414.32,110.37v-4l14.6-.42V110l-14.6.36m37.28-9.24-39.67,1.29v11l39.67-.87V101.13" style="fill:#f5f5f5"/><polyline points="443.94 70.41 414.32 72.23 414.32 76.25 443.94 74.54 443.94 70.41" style="fill:#e8e8e8"/><polyline points="442.25 88.04 414.32 89.3 414.32 93.31 442.25 92.16 442.25 88.04" style="fill:#e8e8e8"/><polyline points="428.92 105.94 414.32 106.36 414.32 110.38 428.92 110.01 428.92 105.94" style="fill:#e8e8e8"/><circle cx="411.93" cy="50.59" r="7.98" style="fill:#ffa21d"/><line x1="411.74" y1="47.17" x2="411.74" y2="54" style="fill:none;stroke:#fff;stroke-miterlimit:10;stroke-width:1.14020871184569px"/><line x1="415.34" y1="50.59" x2="408.51" y2="50.59" style="fill:none;stroke:#fff;stroke-miterlimit:10;stroke-width:1.14020871184569px"/><path d="M363.78,101.94s.18.62.43,1.74" style="fill:none;stroke:#ff777f;stroke-miterlimit:10;stroke-width:0.6000000000000001px"/><path d="M364.81,106.56c3,16.06,8.21,69.16-51.3,81" style="fill:none;stroke:#ff777f;stroke-miterlimit:10;stroke-width:0.6000000000000001px;stroke-dasharray:3.5271289348602295,2.9392740726470947"/><path d="M312.06,187.88l-1.78.31" style="fill:none;stroke:#ff777f;stroke-miterlimit:10;stroke-width:0.6000000000000001px"/><path d="M298.58,172.26a11.67,11.67,0,0,1,23.31,0c0,3.4-1.91,6.32-4.15,8.49l-7.46,7.44-8.74-8.54A10.76,10.76,0,0,1,298.58,172.26Z" style="fill:#ff777f;fill-rule:evenodd"/><circle cx="310.23" cy="171.33" r="5.13" style="fill:#fff"/><path d="M352.08,86a11.67,11.67,0,0,1,23.31,0c0,3.41-1.91,6.33-4.15,8.49l-7.46,7.45L355,93.4A10.8,10.8,0,0,1,352.08,86Z" style="fill:#ff777f;fill-rule:evenodd"/><circle cx="363.73" cy="85.08" r="5.13" style="fill:#fff"/><path d="M364.92,101.58s40.47,63.76,30.56,79.61" style="fill:none;stroke:#ff777f;stroke-miterlimit:10;stroke-width:0.6000000000000001px;stroke-dasharray:3.5999999046325684,3"/><ellipse cx="398.43" cy="194.09" rx="6.66" ry="6.68" transform="translate(-33.27 93.82) rotate(-12.9)" style="fill:#13b0e5"/><ellipse cx="398.43" cy="194.09" rx="13.2" ry="13.24" transform="translate(-33.27 93.81) rotate(-12.89)" style="fill:none;stroke:#07d6a6;stroke-miterlimit:10;stroke-width:3.82754917202895px"/><path d="M761.25,408.37,668,410.09a55.22,55.22,0,0,0-9,.79,43.16,43.16,0,0,0-7.76,2,22.44,22.44,0,0,0-5.72,3,7.58,7.58,0,0,0-2.87,3.7,4.17,4.17,0,0,0,.76,3.74,10.6,10.6,0,0,0,4.14,3.07,28.2,28.2,0,0,0,6.9,2.07,49.51,49.51,0,0,0,9,.72l103.54-1.85a48.82,48.82,0,0,0,8.87-.83,27.61,27.61,0,0,0,6.73-2.15,10,10,0,0,0,3.94-3.12,4.07,4.07,0,0,0,.54-3.74,8,8,0,0,0-3.06-3.65,23.53,23.53,0,0,0-5.86-2.93,43.77,43.77,0,0,0-7.83-1.92,54.53,54.53,0,0,0-9-.66" style="opacity:0.55;fill:url(#g)"/><path d="M668.15,411.17l-93.27,1.72a55.22,55.22,0,0,0-9,.79,43.16,43.16,0,0,0-7.76,2,22.44,22.44,0,0,0-5.72,3,7.58,7.58,0,0,0-2.87,3.7,4.17,4.17,0,0,0,.76,3.74,10.6,10.6,0,0,0,4.14,3.07,28.2,28.2,0,0,0,6.9,2.07,49.51,49.51,0,0,0,9,.72l103.54-1.85a48.82,48.82,0,0,0,8.87-.83,27.61,27.61,0,0,0,6.73-2.15,10,10,0,0,0,3.94-3.12,4.07,4.07,0,0,0,.54-3.74,8,8,0,0,0-3.06-3.65,23.53,23.53,0,0,0-5.86-2.93,43.77,43.77,0,0,0-7.83-1.92,54.53,54.53,0,0,0-9-.66" style="opacity:0.55;fill:url(#h)"/><path d="M669,399.21s4.67-2.87,8.81-.54l-.72-2,3.23.18s2.88,9.17,1.8,13.12H680.7s4.14,13.85-3.59,15.29c0,0-1.44,1.61-9.17,1.07s2.34-5.57,2.34-5.57S664.52,410.54,669,399.21Z" style="fill:url(#i)"/><path d="M586,410.5s-7.41,2.17-11.55,5c-1.46,1-4.2,3.05-3.77,4.77l2.68,1.92s33-4.85,33.47-4.85l-4-15.23L585,405.23Z" style="fill:url(#j)"/><path d="M661.61,356.44l-49.26-17.39s-32.3-6.62-46.37-4.55,16.14,73.28,16.14,73.28l23.19-3.73-17-47.61,67.49,26.91S667.82,369.69,661.61,356.44Z" style="fill:#53d2fd"/><path d="M661.61,356.44s10.77,19.87-21.94,41.4L607.38,431s-14.49,7-18.63-7.45,24-37.68,24-57.55l8.34-10.35,40.51.83s10.77,19.87-21.94,41.4L624.9,413" style="fill:#53d2fd"/><path d="M597.86,432.67s27.73,1.19,69.55-14.54c0,0,3.31-17.39,0-21.12l-56.72,8.7S587.92,408.71,597.86,432.67Z" style="fill:#53d2fd"/><path d="M588.75,423.51c-2.46-8.59,6.43-20.23,14.08-32.42l.89-1.43" style="fill:none;stroke:#0abffc;stroke-miterlimit:10;stroke-width:0.694072247603462px"/><line x1="593.44" y1="358.37" x2="580.47" y2="352.85" style="fill:none;stroke:#0abffc;stroke-miterlimit:10;stroke-width:0.694072247603462px"/><path d="M575.91,302.2s-23.6-2.07-35.19-7.86l-5.38,7.86S566,318.35,578,317.11l12.84-5.38-10.35-11.18Z" style="fill:url(#k)"/><path d="M592.85,236a16.77,16.77,0,0,1,9.14-7.19c6.61-2.24,18.22-2.89,23.19,7.6,6,12.64-3.31,23.73-3.31,23.73l1.1,11-14.9,12.15L602,267.56s-10.44,3.63-10.22-4.41S587.68,244.63,592.85,236Z" style="fill:url(#l)"/><path d="M667.82,354.37s-12.36-35.12-14-55c-.94-11.84-23.16-29-26.58-31.61a2.22,2.22,0,0,1-.68-.84l-1.15-2.47a2.23,2.23,0,0,0-3.75-.46L610.45,277.9a2.23,2.23,0,0,1-3.75-.45h0a2.22,2.22,0,0,0-3.64-.59c-5.67,6-20.51,21.53-25.49,24.52-5.4,3.24,13,11.18,17.89,13.19a2.21,2.21,0,0,0,2.15-.26l2.94-2.13a2.22,2.22,0,0,1,3.39,1c.17.46.35.94.54,1.42,7.58,19.85,6.66,28.69,6.3,30.63a2.14,2.14,0,0,0,0,.94c4,14.39,38.49,14.39,48.72,14.39S667.82,354.37,667.82,354.37Z" style="fill:#07d7a7"/><path d="M602.23,307.53c-3.47-9.48-3.11-13-2.64-14.28l-.29-1.49c-.22.78-4.71,21.74-2.67,23a11.81,11.81,0,0,0,3-1.88c1.39-1.39,2.69-1.44,3.68-.63l-.88-4.52Z" style="fill:#1a1a1a;opacity:0.02"/><path d="M639.26,335.74s2.07,6.21-20.7,39.33l9.1,6.62s23.19-27.73,26.91-36,3.73-14.49,3.73-14.49Z" style="fill:url(#m)"/><path d="M600.34,291.44s-4.55.41,4.14,23.18,6.21,31.05,6.21,31.05" style="fill:none;stroke:#09cc99;stroke-miterlimit:10"/><path d="M635.28,319.45l-2.53-10.37a11,11,0,0,1,4.36-11.61h0a11,11,0,0,1,17,6.27c2.82,11.18,5.41,25,4.18,27.44" style="fill:none;stroke:#09cc99;stroke-miterlimit:10"/><path d="M628.35,380.08l-3.62,10c-.09.26-1.9,5.83-2,6.08-.93,2.47-2.82,1.84-2.21-1l.71-6.1c-.48-.17-2,6.52-2,6.57-.82,3-3.68,1.33-2.89-1,0,0,1.59-6.07,1.36-6.34-.41-.46-2.66,5.8-2.67,5.85a1.16,1.16,0,0,1-2.29-.31c.07-1.37,2.49-6.67,2.22-7.53-.14-.45-3.1,5.1-3.35,5.91-.2.61-2.43.57-2.2-.89.5-3.1,6.81-13.34,6.81-13.34,1.06-2.92,7.16-5.7,7.16-5.7C627.17,373.64,629.41,377.16,628.35,380.08Z" style="fill:url(#n)"/><path d="M615.54,228.15s11.89,5.95,13,15.66c.68,5.89-8.32,20.55-10.09,19.35,0,0-12.54-1.7-10.07-8.64s.53-10.21-3.41-6.87c-.72.62-1.68,3-2.17,3.43-1.49,1.36-2.6-1-.81-6.64l-5.8.57a8.37,8.37,0,0,1-3.81-.49c-3.08-1.21-7.25-4.4,1.35-12C602.68,224.69,606.69,225.4,615.54,228.15Z" style="fill:#1a1a1a"/><path d="M526.85,291.25c-2.53-2.44-7.79-7.77-7.25-4.71.41,2.31,6,8.15,9.88,11.25a34.51,34.51,0,0,0,6.71,4.95l.71.48-.12-.15.42.23c.33-7.44,4.73-8.34,4.73-8.34-6.72-3.6-8.58-7.64-8.46-10a2.27,2.27,0,0,0-2.3-2.44c.09-1.81-1.28-1.75-1.28-1.75C527,276.23,526.54,286.05,526.85,291.25Z" style="fill:url(#o)"/><path d="M118.79,384.93l-93.27,1.72a56.35,56.35,0,0,0-9,.79,43.16,43.16,0,0,0-7.76,2,22.44,22.44,0,0,0-5.72,3,7.56,7.56,0,0,0-2.87,3.71,4.16,4.16,0,0,0,.76,3.73A10.71,10.71,0,0,0,5.06,403a28.67,28.67,0,0,0,6.9,2.06,49.51,49.51,0,0,0,9,.72l103.54-1.85a48.82,48.82,0,0,0,8.87-.83,27.19,27.19,0,0,0,6.73-2.15,10,10,0,0,0,3.94-3.12,4.07,4.07,0,0,0,.54-3.74,8,8,0,0,0-3.06-3.65,23.53,23.53,0,0,0-5.86-2.93,43.77,43.77,0,0,0-7.83-1.92,55.64,55.64,0,0,0-9-.66" style="opacity:0.55;fill:url(#p)"/><path d="M193,377.93l-93.27,1.72a56.35,56.35,0,0,0-9,.79,43.16,43.16,0,0,0-7.76,2,22.44,22.44,0,0,0-5.72,3,7.56,7.56,0,0,0-2.87,3.71,4.16,4.16,0,0,0,.76,3.73A10.71,10.71,0,0,0,79.26,396a28.67,28.67,0,0,0,6.9,2.06,49.51,49.51,0,0,0,9,.72l103.54-1.85a48.82,48.82,0,0,0,8.87-.83,27.19,27.19,0,0,0,6.73-2.15,10,10,0,0,0,3.94-3.12,4.07,4.07,0,0,0,.54-3.74,8,8,0,0,0-3.06-3.65,23.53,23.53,0,0,0-5.86-2.93,43.77,43.77,0,0,0-7.83-1.92,55.64,55.64,0,0,0-9-.66" style="opacity:0.55;fill:url(#q)"/><path d="M88.5,391.87l1.23,5.57s4.1,3.31,19.46-2,10.49-10.95,10.49-10.95,3.07-1.53-16.64-.76S88.5,391.87,88.5,391.87Z" style="fill:#4d4d4d"/><path d="M26.38,374.76s-3.71,3.33-3.71,6.13c0,0-.26,9.67,2,12,0,0,7.17,5.6,12,4.08,0,0,5.64-5.09,1.28-7.9l-.76-10.66S33.42,380.6,26.38,374.76Z" style="fill:#4d4d4d"/><path d="M61.29,248s-9.52,8.12-10.43,27.51.46,29.77-6.8,41.49-12.7,13.53-17.68,57.73c0,0,4.08,5.87,10.88,3.61,0,0,12.7-42.39,20.41-50.06S79,273.74,79,273.74l6.8-22.56S72.63,246.67,61.29,248Z" style="fill:#84dffd"/><path d="M104.38,258s2.72,13.53-5,65.4c0,0,2.28,35.64,2.72,58.18,0,0,.9,13.46-13.61,10.34,0,0-5.89-46.42-5-57.25S79,276.44,75.35,276.44c0,0-9.52-5-6.8-13.53" style="fill:#84dffd"/><polygon points="85.78 251.19 104.07 257.95 81.1 262.16 85.78 251.19" style="fill:#84dffd"/><path d="M80.35,295.8c-1.57-10.73-3.45-19.36-5-19.36,0,0-9.52-5-6.8-13.53" style="fill:none;stroke:#0abffc;stroke-miterlimit:10;stroke-width:0.694072247603462px"/><path d="M60.29,237l-.09-.22-6,3.35a11.64,11.64,0,0,0,6.45,5.62c.43-.79,2.35-4.28,4.8-8.42A18.46,18.46,0,0,1,60.29,237Z" style="fill:#e0c8c5"/><path d="M63.11,246.21c3.84-.76,5.89-9.93,5.89-9.93a7.67,7.67,0,0,1-3.56,1.09c-2.45,4.14-4.37,7.63-4.8,8.42A7.62,7.62,0,0,0,63.11,246.21Z" style="fill:#f2f2f2"/><path d="M162.18,130.88c-12,6.11-31.49,35.13-36.87,36.66a66.56,66.56,0,0,0-12,5.35h-21c-16.89-.51-22,2.8-22,2.8l-28.93,30a9.67,9.67,0,0,0-2.81,10.44L54.15,240.1a.43.43,0,0,1,0,.07l6-3.35a200.84,200.84,0,0,1-8.61-24.72c7.17-9.42,21-15.28,21-15.28s5.63,21.64.26,29c-2.41,3.32-5.13,7.7-7.4,11.53-.06-.05-4.89,8.59-4.89,8.59l.74,2.07c20.2-1.75,54.15,15.83,54.15,15.83,3.07-8.65,2.71-72.13,2.71-72.13,28.67-22.15,48.63-56,48.63-56S174.21,124.77,162.18,130.88Z" style="fill:#0abffc"/><path d="M72.66,196.72s-1.09-4.17-2.45-5.37S51.47,212.1,51.47,212.1,58.67,202.81,72.66,196.72Z" style="fill:#f2f2f2;opacity:0.1"/><path d="M163.86,125s.89-4.69,2.42-4.36S166,125,166,125Z" style="fill:#e0c8c5"/><path d="M160,131.84s3.86-9,7.8-9.08c3.32-.74,14.5-1.49,10.47,1.55,0,0,.14,1.13-1.36,1.17a1.9,1.9,0,0,1-1.89,2.06c-2,.06-5.23,1.87-7.78,7.65C167.26,135.19,166.23,131.61,160,131.84Z" style="fill:#e0c8c5"/><path d="M108.26,165.7s10.23,2,8.57-7.83-5.06-18.94-11.69-19.33S95.16,161.26,108.26,165.7Z" style="fill:#e0c8c5"/><path d="M102.45,134.8a13.76,13.76,0,0,0-13.07.22c-3.68,2.16-7.45,6.81-7.84,16.74-.44,11.38-1.38,24.86-2.11,34.28-.88,11.45,9.8,20.69,20.94,17.7a18.2,18.2,0,0,0,8.66-5.38,13.58,13.58,0,0,0,3.63-9.66c-.23-8.31-.86-26.06-2.3-37.1a12.94,12.94,0,0,1-.1-2C110.36,146.93,110,138.51,102.45,134.8Z" style="fill:url(#r)"/><ellipse cx="103.63" cy="138.62" rx="6.51" ry="10.11" transform="translate(-59.57 196.24) rotate(-72.66)" style="fill:url(#s)"/><path d="M301.83,445.92l101.58,1.88a61.52,61.52,0,0,1,9.81.86,47.22,47.22,0,0,1,8.45,2.21,24.14,24.14,0,0,1,6.23,3.28,8.21,8.21,0,0,1,3.12,4,4.55,4.55,0,0,1-.82,4.08,11.71,11.71,0,0,1-4.51,3.34,31.4,31.4,0,0,1-7.51,2.25,54.57,54.57,0,0,1-9.77.78l-112.75-2a52.43,52.43,0,0,1-9.66-.91,29.35,29.35,0,0,1-7.34-2.34,10.9,10.9,0,0,1-4.29-3.4,4.39,4.39,0,0,1-.58-4.07,8.79,8.79,0,0,1,3.32-4,25.88,25.88,0,0,1,6.39-3.18,48,48,0,0,1,8.52-2.1,62.11,62.11,0,0,1,9.81-.72" style="opacity:0.55;fill:url(#t)"/><path d="M314.09,238.49s25.49,18.16,13.15,31.62l3.07,42.48L304.08,321l-12.87-83.44Z" style="fill:#f2f2f2"/><path d="M318.56,432.41v16.35s11.5.51,11.5-1-1.28-18.14-1.28-18.14S322.13,412.22,318.56,432.41Z" style="fill:#ffdcb5"/><path d="M295.31,443.14l-1.54-10.73s-6.64-9.71-8.43,1V450S296.07,462.81,295.31,443.14Z" style="fill:#ffdcb5"/><path d="M360.86,244.12V220.23s11.78-13.58,0-17.06l6.35-8.49-2.15-1.54-10.2,13.7s-3.66,3.12-2.12,11.79l-1.54,26.81S358.55,257.27,360.86,244.12Z" style="fill:#ffdcb5"/><path d="M287.9,308.27s-11.76,22.44-3.58,41.35l.34,33.73s-3.24,12-3.24,41.39c0,12.39,2.13,15.84,2.13,15.84l12.52-1.53s-2.55-8.18,0-21.46,7.3-30.31,7.3-30.31,3.94-15.17,7-36.13c0,0-2.55,36.29,0,39.35s-1.53,11.76,5.62,35.77V435l15.33-.51s-2-41.39-5.11-43.95c0,0,10.73-36.28,5.11-61.83l-1-16.08Z" style="fill:#84dffd"/><path d="M288.1,237.19s-10.53,2.47-12,17.79c0,0-18.67,22.72-15.8,28.16l17.23,22.77s12-4,13.88-11.41l-15.7-13.83L284.27,269s7.21,10.48-2.85,52c0,0-5.36,11.54-2.49,16l40.28-8.4s8.14-14.32-7.66-41.49C311.55,287.09,312,237.69,288.1,237.19Z" style="fill:#ffdb66"/><path d="M303.72,190.44s4.82,11-5,31.08l.95,18.32s27.23,17.17-7.5,17.75-12.55-23.93-12.55-23.93S259.92,184.07,303.72,190.44Z" style="fill:#b1766d"/><path d="M315.49,237.19s1-6.13,18.4,6.13A74.06,74.06,0,0,0,349.22,249v-9.74l15.84,6.64s-.51,15.33-10.22,17.89H330.31L337.47,321l-10.13,4.22s-1.12-41.61-.1-55.11c0,0,8.69-10.53-3.57-17.64C323.67,252.47,309.72,238.14,315.49,237.19Z" style="fill:#ffdb66"/><path d="M288.62,299.26s10.17-1.66,15.67,5.1-5.86,10.66-19.14,3.56l-3.7-3.67Z" style="fill:#ffdcb5"/><path d="M314.09,238.49s-3.61,1.93-4.77-4.63l-.77-12.13s-6-12.12-12.74,0l.63,19.36s6.25,3.64,9.2,14.33c0,0,8.7,4.68,14.49,2.56s1.54-7.65,1.54-7.65S314,243.12,314.09,238.49Z" style="fill:#ffdcb5"/><path d="M304.3,193.14s16.68,15.92,13.27,31.07c0,0-5.55,7.78-16.93-2.48,0,0-20.65-1.19-17.56-15.66S297,190.44,304.3,193.14Z" style="fill:#ffdcb5"/><path d="M303.72,190.44a43.13,43.13,0,0,1-5,31.08c-9.29,16.1,11.1,25.65,11.1,25.65s8.94,16.47-11.48,6-18.72-19.5-18.72-19.5S272.62,184.1,303.72,190.44Z" style="fill:#b1766d"/><path d="M330.06,441.25s4.08.77,7.66,7.59c0,0,11.5,3.75,11.75,8.1v5.62s-10.73,3.58-17.12-1.28c0,0-15.33-1.79-16.35-5.62l2.56-13.2s.17,5.79,5.75,4C324.31,446.46,323.67,441.66,330.06,441.25Z" style="fill:url(#u)"/><path d="M297.88,441.3s1.53,9.79,7.41,12.87,5.11,10,0,9.71-11.5,2.56-16.1-3.32c0,0-7.15-2.83-7.92-6.39l4.07-10.36s-1,6.89,5.79,2.19S291.75,439.92,297.88,441.3Z" style="fill:url(#v)"/><path d="M308.49,362.88a77.93,77.93,0,0,0,3.26-25.9" style="fill:none;stroke:#53d2fd;stroke-miterlimit:10;stroke-width:1.0890727043151855px"/></g></svg>